<svg xmlns="http://www.w3.org/2000/svg" xmlns:xlink="http://www.w3.org/1999/xlink" width="128" zoomAndPan="magnify" viewBox="0 0 96 95.999999" height="128" preserveAspectRatio="xMidYMid meet" version="1.0"><defs><clipPath id="7a31f1b782"><path d="M 7 1.777344 L 54 1.777344 L 54 50 L 7 50 Z M 7 1.777344 " clip-rule="nonzero"/></clipPath><clipPath id="91dff6bdb2"><path d="M 17 1.777344 L 86.933594 1.777344 L 86.933594 87 L 17 87 Z M 17 1.777344 " clip-rule="nonzero"/></clipPath><clipPath id="8f3bde2a63"><path d="M 11 1.777344 L 71 1.777344 L 71 64 L 11 64 Z M 11 1.777344 " clip-rule="nonzero"/></clipPath></defs><g clip-path="url(#7a31f1b782)"><path fill="#1881c4" d="M 9.273438 49.105469 C 8.039062 42.734375 13.707031 36.761719 13.765625 36.703125 L 13.769531 36.699219 L 53.429688 1.78125 L 44.492188 1.78125 L 11.980469 30.890625 C 8.382812 34.113281 6.695312 38.851562 7.476562 43.5625 C 7.914062 46.199219 8.855469 48.28125 9.273438 49.105469 " fill-opacity="1" fill-rule="nonzero"/></g><path fill="#eb078c" d="M 40.09375 55.558594 L 71.320312 93.933594 L 79.761719 93.933594 L 45.105469 50.546875 L 40.09375 55.558594 " fill-opacity="1" fill-rule="nonzero"/><path fill="#eb078c" d="M 30.359375 64.867188 L 53.664062 93.933594 L 64.734375 93.933594 L 36.453125 58.929688 L 30.359375 64.867188 " fill-opacity="1" fill-rule="nonzero"/><g clip-path="url(#91dff6bdb2)"><path fill="#1881c4" d="M 34.042969 85.527344 C 33.972656 85.460938 33.898438 85.382812 33.820312 85.304688 C 33.777344 85.265625 33.734375 85.21875 33.691406 85.175781 C 33.644531 85.125 33.59375 85.074219 33.542969 85.023438 C 33.5 84.980469 33.460938 84.9375 33.414062 84.890625 C 32.183594 83.613281 30.289062 81.472656 28.585938 78.84375 C 27.355469 76.9375 26.015625 74.546875 25.214844 71.957031 C 24.503906 68.519531 25.585938 64.878906 28.097656 62.308594 L 87.234375 1.78125 L 76.042969 1.78125 L 22.683594 54.789062 C 21.886719 55.582031 10.484375 66.9375 24.75 86.085938 L 34.621094 86.085938 C 34.507812 85.984375 34.320312 85.804688 34.078125 85.5625 L 34.042969 85.527344 " fill-opacity="1" fill-rule="nonzero"/></g><g clip-path="url(#8f3bde2a63)"><path fill="#1881c4" d="M 61.179688 1.777344 L 61.167969 1.785156 L 18.570312 41.503906 L 17.441406 42.554688 C 14.507812 45.292969 12.585938 48.953125 12.089844 52.867188 L 12.085938 52.886719 C 12.050781 53.121094 12.023438 53.355469 12.015625 53.578125 L 12.015625 53.601562 C 11.960938 54.289062 11.949219 54.984375 11.984375 55.6875 C 12.109375 58.117188 12.773438 60.742188 14.425781 63.289062 C 14.425781 63.289062 13.699219 57.210938 17.101562 53.761719 L 70.015625 1.804688 L 70.046875 1.777344 L 61.179688 1.777344 " fill-opacity="1" fill-rule="nonzero"/></g></svg>